<svg xmlns="http://www.w3.org/2000/svg" width="58" height="48" viewBox="0 0 58 48">
  <path d="M763.429,68a11.01,11.01,0,0,1-11.047-10.972v-24A13.074,13.074,0,0,1,765.5,20h1.381A13.074,13.074,0,0,1,780,33.029v6.857H768.263V32.342a2.072,2.072,0,0,0-4.144,0V55.658a2.072,2.072,0,0,0,4.144,0V49.486H765.5V41.258H780V58.4h0v8.914h-8.629l-.688-1.737A8.286,8.286,0,0,1,764.811,68Zm-24.857-.686V20.686h11.737V67.315Zm-5.548,0H722V20.686h11.047l-.02,32.915H736.5V67.315Z" transform="translate(-722.001 -20.001)" fill="#ffffff" />
</svg>